<svg width="310" height="95" viewBox="0 0 310 95" fill="none" xmlns="http://www.w3.org/2000/svg">
<path d="M298.264 74.4C295.576 74.4 292.792 74.016 289.912 73.248C287.096 72.544 284.44 71.68 281.944 70.656C279.448 69.696 277.272 68.896 275.416 68.256C272.024 67.04 268.856 65.856 265.912 64.704C262.968 63.552 260.888 62.848 259.672 62.592C253.464 60.992 249.08 60.192 246.52 60.192C246.072 60.512 245.656 60.768 245.272 60.96C244.888 61.216 244.472 61.376 244.024 61.44C243.832 61.504 243.544 61.536 243.16 61.536C242.008 61.536 241.432 61.152 241.432 60.384C241.432 59.936 241.784 59.488 242.488 59.04C243 58.784 243.576 58.656 244.216 58.656C244.92 58.592 245.624 58.528 246.328 58.464C247.8 57.184 249.176 55.552 250.456 53.568C251.8 51.584 252.76 50.08 253.336 49.056C253.848 48.16 254.328 47.296 254.776 46.464C255.288 45.568 255.8 44.704 256.312 43.872C255.288 44.128 254.232 44.384 253.144 44.64C252.056 44.832 251 44.928 249.976 44.928C248.12 44.928 246.424 44.544 244.888 43.776C243.416 43.008 242.68 41.6 242.68 39.552C242.68 38.208 243.256 36.96 244.408 35.808C245.624 34.656 246.872 34.08 248.152 34.08C248.92 34.08 249.304 34.4 249.304 35.04C249.304 35.424 249.016 35.616 248.44 35.616C247.736 35.616 247.096 36.032 246.52 36.864C245.944 37.696 245.656 38.56 245.656 39.456C245.656 40.096 245.848 40.736 246.232 41.376C246.68 41.952 247.416 42.304 248.44 42.432C249.4 42.624 250.424 42.72 251.512 42.72C253.368 42.72 255.256 42.464 257.176 41.952C258.072 40.16 258.904 38.4 259.672 36.672C260.504 34.88 261.304 33.12 262.072 31.392C263.672 27.872 265.304 24.448 266.968 21.12C268.632 17.792 270.264 14.816 271.864 12.192C273.464 9.568 274.904 7.616 276.184 6.336C278.616 4.032 281.048 2.4 283.48 1.44C285.976 0.48 288.216 0 290.2 0C290.584 0 290.968 0.0319996 291.352 0.0959988C291.736 0.0959988 292.088 0.127998 292.408 0.191998C294.776 0.575996 296.44 1.408 297.4 2.688C298.36 3.904 298.84 5.376 298.84 7.104C298.84 8 298.744 8.928 298.552 9.888C297.72 13.92 296.024 17.696 293.464 21.216C290.968 24.736 287.928 27.936 284.344 30.816C280.76 33.632 276.92 36.032 272.824 38.016C268.792 40 264.856 41.44 261.016 42.336C260.184 43.744 259.288 45.152 258.328 46.56C257.432 47.904 256.44 49.248 255.352 50.592C254.712 51.552 253.784 52.8 252.568 54.336C251.352 55.808 250.104 57.184 248.824 58.464C249.72 58.528 250.68 58.592 251.704 58.656C252.792 58.784 253.944 58.944 255.16 59.136C260.472 59.968 265.784 61.184 271.096 62.784C276.472 64.448 281.784 65.952 287.032 67.296C288.504 67.68 290.584 68.16 293.272 68.736C296.024 69.312 298.584 69.6 300.952 69.6C303.256 69.6 305.016 69.184 306.232 68.352C307.192 67.776 307.672 66.976 307.672 65.952C307.672 65.184 307.32 64.544 306.616 64.032C306.232 63.712 306.04 63.456 306.04 63.264C306.04 62.624 306.424 62.528 307.192 62.976C308.024 63.552 308.6 64.224 308.92 64.992C309.304 65.76 309.496 66.56 309.496 67.392C309.496 68.352 309.304 69.216 308.92 69.984C308.6 70.816 308.184 71.392 307.672 71.712C305.048 73.504 301.912 74.4 298.264 74.4ZM262.456 40.128C269.56 37.056 275.8 33.312 281.176 28.896C286.552 24.48 290.808 18.656 293.944 11.424C294.968 9.184 295.48 7.232 295.48 5.568C295.48 4.224 295.064 3.168 294.232 2.4C293.784 1.824 293.048 1.536 292.024 1.536C289.912 1.536 287.736 2.272 285.496 3.744C283.576 5.152 281.752 7.008 280.024 9.312C278.36 11.616 276.792 14.048 275.32 16.608C273.848 19.168 272.536 21.6 271.384 23.904C270.296 26.144 269.368 27.936 268.6 29.28C268.088 30.304 267.288 31.808 266.2 33.792C265.176 35.776 263.928 37.888 262.456 40.128Z" fill="white"/>
<path d="M234.1 76.704C231.796 76.704 230.069 75.808 228.917 74.016C227.765 72.224 226.997 70.016 226.613 67.392C226.485 66.432 226.357 65.408 226.229 64.32C226.165 63.296 226.132 62.208 226.132 61.056C226.132 58.816 226.26 56.416 226.516 53.856C226.772 51.232 227.124 48.544 227.572 45.792C225.14 48.16 222.484 50.496 219.604 52.8C216.788 55.04 213.844 56.896 210.772 58.368C207.764 59.84 204.724 60.576 201.652 60.576C200.052 60.576 198.612 60.096 197.332 59.136C196.116 58.176 195.349 56.576 195.029 54.336C194.965 53.888 194.901 53.472 194.837 53.088C194.837 52.64 194.837 52.192 194.837 51.744C194.837 48.928 195.316 45.984 196.276 42.912C197.236 39.84 198.42 36.768 199.828 33.696C201.3 30.56 202.772 27.488 204.244 24.48C205.78 21.472 207.061 18.688 208.085 16.128C208.213 15.936 208.277 15.776 208.277 15.648C208.277 15.456 208.277 15.328 208.277 15.264C208.277 15.008 208.18 14.88 207.988 14.88C207.604 14.88 206.9 15.296 205.876 16.128C203.7 17.92 201.46 19.456 199.156 20.736C196.852 22.016 194.709 22.72 192.725 22.848H192.628C192.052 22.848 191.764 22.656 191.764 22.272C191.764 21.696 192.18 21.344 193.012 21.216C194.1 21.088 195.413 20.608 196.949 19.776C198.549 18.88 200.212 17.792 201.94 16.512C203.668 15.232 205.301 13.92 206.837 12.576C208.437 11.168 209.78 9.88799 210.868 8.73599C212.021 7.58399 212.756 6.68799 213.076 6.04799C213.204 5.72799 213.653 5.43999 214.421 5.18399C215.253 4.92799 216.052 4.79999 216.82 4.79999C217.524 4.79999 218.133 4.89599 218.645 5.088C219.157 5.28 219.349 5.6 219.221 6.04799C218.773 6.752 217.908 8.16 216.628 10.272C215.412 12.32 213.973 14.816 212.309 17.76C210.709 20.64 209.076 23.744 207.412 27.072C205.812 30.4 204.372 33.696 203.092 36.96C201.876 40.16 201.013 43.072 200.501 45.696C200.373 46.528 200.276 47.328 200.212 48.096C200.148 48.8 200.117 49.504 200.117 50.208C200.117 52.768 200.564 54.592 201.46 55.68C202.356 56.704 203.476 57.216 204.82 57.216C206.484 57.216 208.308 56.768 210.292 55.872C212.34 54.912 214.388 53.696 216.436 52.224C218.548 50.688 220.597 49.056 222.581 47.328C224.565 45.6 226.356 43.936 227.956 42.336C228.596 38.176 229.364 34.112 230.26 30.144C231.22 26.176 232.212 22.528 233.236 19.2C234.324 15.872 235.38 13.184 236.404 11.136C237.94 7.80799 239.764 5.18399 241.876 3.264C243.988 1.27999 246.517 0.351995 249.461 0.479998C251.637 0.671995 253.141 1.34399 253.973 2.49599C254.805 3.64799 255.22 4.99199 255.22 6.52799C255.22 7.67999 255.029 8.896 254.645 10.176C253.813 12.992 252.5 15.84 250.708 18.72C248.98 21.536 247.028 24.32 244.852 27.072C242.676 29.824 240.5 32.48 238.324 35.04C236.148 37.6 234.197 40 232.469 42.24C232.149 43.968 231.828 45.952 231.508 48.192C231.253 50.368 231.029 52.512 230.837 54.624C230.709 56.736 230.645 58.56 230.645 60.096C230.645 66.304 231.7 70.72 233.812 73.344C234.58 74.304 235.477 74.784 236.501 74.784C237.269 74.784 237.94 74.464 238.516 73.824C238.772 73.312 239.157 72.8 239.669 72.288C240.053 71.904 240.372 71.712 240.628 71.712C241.076 71.712 241.204 72.128 241.012 72.96C240.948 73.216 240.788 73.504 240.533 73.824C240.34 74.208 240.084 74.56 239.764 74.88C239.316 75.456 238.517 75.904 237.365 76.224C236.213 76.544 235.124 76.704 234.1 76.704ZM233.908 36.192C236.212 34.016 238.549 31.36 240.917 28.224C243.349 25.088 245.525 21.792 247.445 18.336C249.429 14.88 250.836 11.616 251.668 8.544C251.796 8.032 251.892 7.552 251.956 7.104C252.02 6.592 252.052 6.144 252.052 5.76C252.052 3.904 251.476 2.97599 250.324 2.97599C249.364 2.97599 248.181 3.71199 246.773 5.18399C243.253 9.088 240.533 13.696 238.613 19.008C236.757 24.256 235.188 29.984 233.908 36.192Z" fill="white"/>
<path d="M124.025 71.52C122.041 71.52 120.313 71.008 118.841 69.984C117.305 69.024 116.217 67.552 115.577 65.568C115.577 65.44 115.577 65.312 115.577 65.184C115.513 65.056 115.481 64.928 115.481 64.8C115.481 64.352 115.545 63.968 115.673 63.648C115.801 63.328 115.961 63.168 116.153 63.168C116.601 63.168 116.953 63.776 117.209 64.992C117.849 66.592 118.809 67.616 120.089 68.064C121.369 68.576 122.809 68.832 124.409 68.832C124.921 68.832 125.433 68.8 125.945 68.736C126.457 68.672 126.937 68.576 127.385 68.448C130.265 67.552 132.985 65.92 135.545 63.552C138.041 61.248 140.377 58.464 142.553 55.2C144.729 51.872 146.713 48.32 148.505 44.544C150.361 40.704 152.025 36.864 153.497 33.024C154.969 29.12 156.249 25.44 157.337 21.984C158.489 18.464 159.449 15.424 160.217 12.864C158.425 14.528 156.409 15.776 154.169 16.608C151.929 17.44 149.849 17.984 147.929 18.24H147.833C147.129 18.24 146.777 17.984 146.777 17.472C146.777 16.96 147.161 16.672 147.929 16.608C149.785 16.416 151.673 15.712 153.593 14.496C155.513 13.216 157.305 11.616 158.969 9.696C160.697 7.712 162.073 5.568 163.097 3.264C163.225 2.944 163.641 2.688 164.345 2.496C165.113 2.24 165.881 2.112 166.649 2.112C167.353 2.112 167.961 2.208 168.473 2.4C169.049 2.592 169.273 2.88 169.145 3.264C166.585 9.472 164.089 15.776 161.657 22.176C159.289 28.576 156.601 34.88 153.593 41.088C154.873 39.488 156.185 37.92 157.529 36.384C158.937 34.784 160.505 33.088 162.233 31.296V30.048C162.233 29.536 162.233 29.088 162.233 28.704C162.233 28.32 162.265 27.936 162.329 27.552C162.457 27.232 162.649 26.848 162.905 26.4C163.161 25.952 163.417 25.728 163.673 25.728C163.929 25.728 164.153 26.144 164.345 26.976C164.345 27.232 164.345 27.456 164.345 27.648C164.409 27.84 164.473 28.064 164.537 28.32L164.729 28.128C165.305 27.552 166.393 26.56 167.993 25.152C169.593 23.744 171.481 22.08 173.657 20.16C175.897 18.24 178.233 16.288 180.665 14.304C183.097 12.256 185.401 10.336 187.577 8.544C189.753 6.688 191.641 5.152 193.241 3.936C194.841 2.72 195.897 1.984 196.409 1.72799C197.369 1.216 198.233 0.863998 199.001 0.671997C199.833 0.479996 200.537 0.383995 201.113 0.383995C202.137 0.383995 202.873 0.607996 203.321 1.056C203.833 1.44 204.089 1.92 204.089 2.496C204.089 3.648 203.353 4.608 201.881 5.376C199.961 6.272 197.689 7.488 195.065 9.024C192.441 10.496 189.689 12.16 186.809 14.016C183.929 15.808 181.113 17.696 178.361 19.68C175.609 21.6 173.081 23.488 170.777 25.344C168.473 27.2 166.617 28.896 165.209 30.432C166.169 33.824 167.097 36.736 167.993 39.168C168.889 41.6 169.977 43.936 171.257 46.176C172.601 48.352 174.361 50.816 176.537 53.568C178.009 55.296 179.513 56.672 181.049 57.696C182.585 58.72 183.961 59.232 185.177 59.232C186.265 59.232 187.001 59.008 187.385 58.56C187.833 58.048 188.057 57.44 188.057 56.736C188.057 55.84 187.833 54.912 187.385 53.952C186.937 52.992 186.489 52.192 186.041 51.552C185.721 51.04 185.561 50.688 185.561 50.496C185.561 50.24 185.721 50.112 186.041 50.112C186.681 50.112 187.289 50.4 187.865 50.976C188.185 51.296 188.601 52 189.113 53.088C189.689 54.176 189.977 55.136 189.977 55.968C189.977 57.248 189.529 58.336 188.633 59.232C187.737 60.128 186.713 60.768 185.561 61.152C184.409 61.6 183.417 61.824 182.585 61.824C179.577 61.824 176.921 60.96 174.617 59.232C172.377 57.504 170.457 55.264 168.857 52.512C167.321 49.696 166.041 46.656 165.017 43.392C163.993 40.064 163.193 36.832 162.617 33.696C159.865 36.896 157.145 40.128 154.457 43.392C151.769 46.656 149.593 49.408 147.929 51.648C146.713 53.696 145.273 55.872 143.609 58.176C141.945 60.48 140.089 62.624 138.041 64.608C136.057 66.656 133.913 68.32 131.609 69.6C129.241 70.88 126.713 71.52 124.025 71.52Z" fill="white"/>
<path d="M99.8257 65.568C95.3457 65.568 91.5377 64.448 88.4017 62.208C85.3297 59.968 82.9937 57.088 81.3937 53.568C79.7937 49.984 78.9937 46.144 78.9937 42.048C78.9937 37.952 79.8257 33.888 81.4897 29.856C83.1537 25.824 85.7137 22.272 89.1697 19.2C92.6257 16.128 96.9777 13.984 102.226 12.768C102.93 12.64 103.634 12.544 104.338 12.48C105.042 12.352 105.81 12.288 106.642 12.288C108.05 12.288 109.426 12.48 110.77 12.864C112.114 13.248 113.266 13.952 114.226 14.976C114.93 15.616 115.282 16.064 115.282 16.32C115.282 16.576 115.218 16.704 115.09 16.704C114.898 16.704 114.642 16.608 114.322 16.416C114.066 16.224 113.778 16.096 113.458 16.032C112.306 15.584 111.026 15.36 109.618 15.36C109.234 15.36 108.85 15.392 108.466 15.456C108.146 15.456 107.826 15.488 107.506 15.552C103.73 16.448 100.338 17.984 97.3298 20.16C94.3857 22.336 91.8578 24.928 89.7458 27.936C87.6978 30.944 86.1297 34.112 85.0417 37.44C83.9537 40.704 83.4097 43.872 83.4097 46.944C83.4097 49.952 83.9537 52.704 85.0417 55.2C86.1297 57.696 87.7937 59.68 90.0337 61.152C92.3377 62.624 95.2497 63.36 98.7697 63.36C99.7297 63.36 100.754 63.296 101.842 63.168C102.93 63.04 104.082 62.848 105.298 62.592C107.858 62.016 110.45 60.768 113.074 58.848C115.762 56.992 118.322 54.688 120.754 51.936C123.186 49.12 125.33 46.08 127.186 42.816C129.106 39.488 130.61 36.064 131.698 32.544C132.85 29.024 133.426 25.6 133.426 22.272C133.426 15.872 131.634 11.104 128.05 7.968C124.53 4.76799 119.762 3.16799 113.746 3.16799C109.778 3.16799 105.81 3.90399 101.842 5.37599C97.9378 6.78399 94.5778 8.51199 91.7617 10.56C88.8817 12.544 86.2577 14.912 83.8897 17.664C81.5857 20.352 79.6977 23.232 78.2257 26.304C76.7537 29.312 75.8577 32.352 75.5377 35.424C75.5377 36.128 75.3777 36.48 75.0577 36.48C74.8017 36.48 74.5457 36.192 74.2897 35.616C74.0337 34.976 73.9057 34.336 73.9057 33.696C73.9057 30.112 74.6417 26.688 76.1137 23.424C77.6497 20.16 79.6977 17.152 82.2577 14.4C84.8177 11.648 87.7297 9.27999 90.9937 7.29599C94.2577 5.24799 97.6497 3.67999 101.17 2.59199C104.754 1.43999 108.242 0.86399 111.634 0.86399C116.754 0.799991 121.298 1.72799 125.266 3.64799C129.298 5.56799 132.466 8.35199 134.77 12C137.074 15.648 138.226 20.064 138.226 25.248C138.226 30.304 137.266 35.04 135.346 39.456C133.49 43.872 130.994 47.84 127.858 51.36C124.786 54.816 121.362 57.696 117.586 60C113.874 62.304 110.162 63.872 106.45 64.704C105.234 65.024 104.082 65.248 102.994 65.376C101.97 65.504 100.914 65.568 99.8257 65.568Z" fill="white"/>
<path d="M19.968 94.176C17.664 94.176 15.808 93.536 14.4 92.256C13.056 90.976 12.384 89.248 12.384 87.072C12.384 85.344 12.864 83.392 13.824 81.216C14.784 79.104 16.32 76.864 18.432 74.496C22.784 69.504 27.616 65.408 32.928 62.208C38.304 59.008 44.064 56.416 50.208 54.432C51.104 52 51.936 49.536 52.704 47.04C53.472 44.48 54.24 41.92 55.008 39.36C51.872 42.304 48.416 45.248 44.64 48.192C40.864 51.072 36.864 53.504 32.64 55.488C28.416 57.408 24.032 58.368 19.488 58.368C16.16 58.368 12.992 57.76 9.984 56.544C7.04 55.264 4.64 53.344 2.784 50.784C0.928 48.224 0 44.928 0 40.896C0 30.976 4.416 22.048 13.248 14.112C18.368 9.43999 23.936 6.08 29.952 4.032C36.032 1.91999 42.432 0.863991 49.152 0.863991C49.92 0.863991 51.008 0.959991 52.416 1.15199C53.888 1.27999 55.392 1.59999 56.928 2.11199C58.464 2.55999 59.808 3.23199 60.96 4.12799C62.112 4.96 62.784 6.04799 62.976 7.39199C63.04 7.64799 63.072 7.87199 63.072 8.064C63.072 8.25599 63.072 8.44799 63.072 8.63999C63.072 9.408 62.944 9.984 62.688 10.368C62.432 10.752 62.144 10.944 61.824 10.944C61.184 10.944 60.864 10.432 60.864 9.408C60.736 7.67999 60.16 6.36799 59.136 5.47199C58.176 4.512 56.96 3.872 55.488 3.552C54.08 3.23199 52.64 3.07199 51.168 3.07199C48.8 3.07199 45.952 3.58399 42.624 4.60799C39.36 5.56799 35.904 6.94399 32.256 8.73599C28.608 10.464 24.992 12.544 21.408 14.976C17.888 17.344 14.688 19.968 11.808 22.848C8.928 25.664 6.624 28.64 4.896 31.776C3.168 34.912 2.304 38.08 2.304 41.28C2.304 45.696 3.744 48.896 6.624 50.88C9.568 52.8 13.28 53.76 17.76 53.76C22.112 53.76 26.72 52.992 31.584 51.456C35.232 50.368 38.368 49.024 40.992 47.424C43.616 45.76 46.112 43.872 48.48 41.76C50.848 39.584 53.376 37.216 56.064 34.656C57.216 31.712 58.72 29.824 60.576 28.992C62.432 28.16 64.16 27.744 65.76 27.744C66.656 27.744 67.456 27.808 68.16 27.936C68.864 28.064 69.344 28.128 69.6 28.128C70.112 28.192 70.368 28.384 70.368 28.704C70.368 29.28 69.984 29.504 69.216 29.376C67.232 29.248 65.504 30.176 64.032 32.16C62.56 34.08 61.376 36.384 60.48 39.072C59.648 41.312 58.848 43.616 58.08 45.984C57.312 48.352 56.48 50.72 55.584 53.088C58.848 52.192 61.28 51.744 62.88 51.744C63.648 51.744 64.16 51.84 64.416 52.032C64.672 52.224 64.8 52.48 64.8 52.8C64.8 53.376 64.576 53.568 64.128 53.376C63.744 53.248 63.328 53.184 62.88 53.184C62.048 53.184 60.992 53.344 59.712 53.664C58.432 53.92 57.28 54.272 56.256 54.72C55.232 55.168 54.592 55.712 54.336 56.352C51.584 63.328 48.672 69.216 45.6 74.016C42.528 78.816 39.424 82.688 36.288 85.632C33.216 88.64 30.272 90.816 27.456 92.16C24.64 93.504 22.144 94.176 19.968 94.176ZM22.656 91.68C25.024 91.68 27.36 90.752 29.664 88.896C31.968 87.104 34.176 84.768 36.288 81.888C38.464 79.008 40.416 75.936 42.144 72.672C43.936 69.408 45.472 66.304 46.752 63.36C48.032 60.416 48.992 58.048 49.632 56.256C44.384 57.984 39.52 60.288 35.04 63.168C30.56 66.048 26.56 69.664 23.04 74.016C21.12 76.384 19.712 78.592 18.816 80.64C17.984 82.688 17.568 84.512 17.568 86.112C17.568 87.84 18.016 89.184 18.912 90.144C19.872 91.168 21.12 91.68 22.656 91.68Z" fill="white"/>
</svg>
